<svg xmlns="http://www.w3.org/2000/svg" version="1.1" width="1107" height="578" viewBox="0 0 1107 578" font-family="Arial, Helvetica, sans-serif" font-size="12"><title>TMFC001: PRODUCT CATALOG MANAGEMENT</title><desc>ODA component architecture for TMFC001 (Helm chart productcatalog v1.4.2, specified). Exposed APIs on the right, dependent APIs on the left; green = core, blue = management, red = security function. Generated by skills/svg-diagram.</desc><rect width="100%" height="100%" fill="#ffffff"/><text x="30" y="40" font-size="16" font-weight="bold" fill="#000000">TMFC001: PRODUCT CATALOG MANAGEMENT</text><text x="30" y="60" fill="#666666">Reference implementation</text><g id="component" transform="translate(348,80)"><rect width="380" height="330" fill="#404040" stroke="#000000"/><text x="190" y="165" text-anchor="middle" font-style="italic" fill="#cfcfcf">No eTOM / SID mapping in implementation</text><g id="etoms"/><g id="sids"/></g><g id="dependent-apis"><g class="dependent-api" data-api="TMF620" data-function="core" transform="translate(87,139.9)"><title>[core] TMF620 Product Catalog Management
required: false
apiType: openapi</title><path fill="none" stroke="#4c9a52" stroke-width="2.5" d="M10,-10 A10,10 0 0 1 10,10"/><line x1="20" x2="261.42" y1="0" y2="0" stroke="#4c9a52" stroke-width="2"/><rect x="32" y="-23" width="217.42000000000002" height="17" rx="3" fill="#e8f5e9"/><text x="140.71" y="-10" text-anchor="middle" fill="#000000">TMF620 Product Catalog Management</text></g></g><g id="exposed-apis"><g class="exposed-api" data-api="TMF620" data-function="core" transform="translate(728,133)"><title>[core] TMF620 Product Catalog Management
required: false
apiType: openapi
path: /r1-productcatalogmanagement/tmf-api/productCatalogManagement/v4
implementation: r1-prodcatapi</title><line x1="0" x2="271.396" y1="0" y2="0" stroke="#4c9a52" stroke-width="2"/><circle cx="281.396" cy="0" r="10" fill="#e8f5e9" stroke="#4c9a52" stroke-width="2"/><rect x="31.988" y="-23" width="217.42000000000002" height="17" rx="3" fill="#e8f5e9"/><text x="140.698" y="-10" text-anchor="middle" fill="#000000">TMF620 Product Catalog Management</text></g><g class="exposed-api" data-api="TMF671" data-function="core" transform="translate(728,179)"><title>[core] TMF671 Promotion Management
required: false
apiType: openapi
path: /r1-productcatalogmanagement/tmf-api/promotionManagement/v4
implementation: r1-promgmtapi</title><line x1="0" x2="271.396" y1="0" y2="0" stroke="#4c9a52" stroke-width="2"/><circle cx="281.396" cy="0" r="10" fill="#e8f5e9" stroke="#4c9a52" stroke-width="2"/><rect x="47.666" y="-23" width="186.06400000000002" height="17" rx="3" fill="#e8f5e9"/><text x="140.698" y="-10" text-anchor="middle" fill="#000000">TMF671 Promotion Management</text></g><g class="exposed-api" data-api="productcatalogmcp" data-function="core" transform="translate(728,225)"><title>[core] Productcatalogmcp (MCP)
required: false
apiType: mcp
path: /r1-productcatalogmanagement/mcp
implementation: r1-prodcatmcp</title><line x1="0" x2="271.396" y1="0" y2="0" stroke="#4c9a52" stroke-width="2"/><circle cx="281.396" cy="0" r="10" fill="#e8f5e9" stroke="#4c9a52" stroke-width="2"/><rect x="65.34800000000001" y="-23" width="150.7" height="17" rx="3" fill="#e8f5e9"/><text x="140.698" y="-10" text-anchor="middle" fill="#000000">Productcatalogmcp (MCP)</text></g><g class="exposed-api" data-api="metrics" data-function="management" transform="translate(728,291)"><title>[management] Metrics (Prometheus)
required: false
apiType: prometheus
path: /r1-productcatalogmanagement/metrics
implementation: r1-productcatalogmanagement-sm</title><line x1="0" x2="271.396" y1="0" y2="0" stroke="#4a7fbf" stroke-width="2"/><circle cx="281.396" cy="0" r="10" fill="#e7eff9" stroke="#4a7fbf" stroke-width="2"/><rect x="78.35600000000001" y="-23" width="124.684" height="17" rx="3" fill="#e7eff9"/><text x="140.698" y="-10" text-anchor="middle" fill="#000000">Metrics (Prometheus)</text></g><g class="exposed-api" data-api="TMF672" data-function="security" transform="translate(728,357)"><title>[security] TMF672 User Role Permission Management
required: false
apiType: openapi
path: /r1-productcatalogmanagement/rolesAndPermissionsManagement/v5
implementation: r1-permissionspecapi</title><line x1="0" x2="271.396" y1="0" y2="0" stroke="#c0504d" stroke-width="2"/><circle cx="281.396" cy="0" r="10" fill="#fbeaea" stroke="#c0504d" stroke-width="2"/><rect x="17" y="-23" width="247.39600000000002" height="17" rx="3" fill="#fbeaea"/><text x="140.698" y="-10" text-anchor="middle" fill="#000000">TMF672 User Role Permission Management</text></g></g><text x="348" y="430" font-style="italic" font-size="11" fill="#666666">Source: Helm chart productcatalog v1.4.2 · CoreCommerce · bold API = required</text><text x="348" y="444" font-style="italic" font-size="11" fill="#666666">helm template r1 --set component.MCPServer.enabled=true,component.dependentAPIs.enabled=true</text><g id="legend" transform="translate(30,484)"><rect width="1046.216" height="64" rx="32" fill="#ffffff" stroke="#000000" stroke-width="1.5"/><text x="40" y="32" dy="0.35em" font-weight="bold">LEGEND</text><g transform="translate(140,32)"><path fill="none" stroke="#4c9a52" stroke-width="2.5" d="M10,-10 A10,10 0 0 1 10,10"/><line x1="20" x2="50" stroke="#4c9a52" stroke-width="2"/><text x="60" dy="0.35em" fill="#000000">Dependent API</text></g><g transform="translate(311.384,32)"><line x1="0" x2="30" stroke="#4c9a52" stroke-width="2"/><circle cx="40" r="10" fill="#e8f5e9" stroke="#4c9a52" stroke-width="2"/><text x="60" dy="0.35em" fill="#000000">Exposed API</text></g><g transform="translate(470.75600000000003,32)"><rect x="0" y="-9" width="50" height="18" rx="3" fill="#e8f5e9" stroke="#4c9a52" stroke-width="2"/><text x="60" dy="0.35em" fill="#000000">Core function</text></g><g transform="translate(632.12,32)"><rect x="0" y="-9" width="50" height="18" rx="3" fill="#e7eff9" stroke="#4a7fbf" stroke-width="2"/><text x="60" dy="0.35em" fill="#000000">Management function</text></g><g transform="translate(837.512,32)"><rect x="0" y="-9" width="50" height="18" rx="3" fill="#fbeaea" stroke="#c0504d" stroke-width="2"/><text x="60" dy="0.35em" fill="#000000">Security function</text></g></g></svg>
