<svg xmlns="http://www.w3.org/2000/svg" version="1.1" width="1287" height="754" viewBox="0 0 1287 754" font-family="Arial, Helvetica, sans-serif" font-size="12"><title>TMFC011: RESOURCE ORDER MANAGEMENT</title><desc>ODA component architecture for TMFC011 (component.yaml v1.2.0, Pre-production). Exposed APIs on the right, dependent APIs on the left; green = core, blue = management, red = security function. Generated by skills/svg-diagram.</desc><rect width="100%" height="100%" fill="#ffffff"/><text x="30" y="40" font-size="16" font-weight="bold" fill="#000000">TMFC011: RESOURCE ORDER MANAGEMENT</text><g id="component" transform="translate(361,80)"><rect width="620" height="520" fill="#404040" stroke="#000000"/><g id="etoms"><g class="etom" transform="translate(30,30)"><title>1.5.5 Resource Order Management (v23.0)</title><rect width="560" height="30" fill="#ffffff" stroke="#000000"/><text x="6" y="15" dy="0.35em" fill="#000000">L2 - Resource Order Management</text></g></g><g id="sids"><g class="sid" transform="translate(30,100)"><title>Resource_Domain › Resource_Order_ABE › v25.0</title><path fill="#ffffff" stroke="#000000" d="M0,5 A88,5 0 0 1 176,5 V33 A88,5 0 0 1 0,33 Z"/><path fill="none" stroke="#000000" d="M0,5 A88,5 0 0 0 176,5"/><text text-anchor="middle" fill="#000000"><tspan x="88" y="21.5" dy="0.35em">Resource Order</tspan></text></g></g></g><g id="dependent-apis"><g class="dependent-api" data-api="TMF632" data-function="core" transform="translate(30,133)"><title>[core] TMF632 Party Management v4.0.0
required: false
apiType: openapi
individual: GET, GET /id
organization: GET, GET /id</title><path fill="none" stroke="#4c9a52" stroke-width="2.5" d="M10,-10 A10,10 0 0 1 10,10"/><line x1="20" x2="331.44" y1="0" y2="0" stroke="#4c9a52" stroke-width="2"/><rect x="96.026" y="-23" width="159.388" height="17" rx="3" fill="#e8f5e9"/><text x="175.72" y="-10" text-anchor="middle" fill="#000000">TMF632 Party Management</text></g><g class="dependent-api" data-api="TMF634" data-function="core" transform="translate(30,179)"><title>[core] TMF634 Resource Catalog Management v4.0.0
required: true
apiType: openapi
resourceSpecification: GET, GET /id, POST, PATCH, DELETE</title><path fill="none" stroke="#4c9a52" stroke-width="2.5" d="M10,-10 A10,10 0 0 1 10,10"/><line x1="20" x2="331.44" y1="0" y2="0" stroke="#4c9a52" stroke-width="2"/><rect x="54.40244" y="-23" width="242.63512" height="17" rx="3" fill="#e8f5e9"/><text x="175.72" y="-10" text-anchor="middle" fill="#000000" font-weight="bold">TMF634 Resource Catalog Management</text></g><g class="dependent-api" data-api="TMF639" data-function="core" transform="translate(30,225)"><title>[core] TMF639 Resource Inventory Management v4.0.0
required: true
apiType: openapi
resource: GET, GET /id, POST, PATCH, DELETE</title><path fill="none" stroke="#4c9a52" stroke-width="2.5" d="M10,-10 A10,10 0 0 1 10,10"/><line x1="20" x2="331.44" y1="0" y2="0" stroke="#4c9a52" stroke-width="2"/><rect x="50.120299999999986" y="-23" width="251.19940000000003" height="17" rx="3" fill="#e8f5e9"/><text x="175.72" y="-10" text-anchor="middle" fill="#000000" font-weight="bold">TMF639 Resource Inventory Management</text></g><g class="dependent-api" data-api="TMF646" data-function="core" transform="translate(30,271)"><title>[core] TMF646 Appointment Management v4.0.0
required: false
apiType: openapi
workOrder: GET, GET /id</title><path fill="none" stroke="#4c9a52" stroke-width="2.5" d="M10,-10 A10,10 0 0 1 10,10"/><line x1="20" x2="331.44" y1="0" y2="0" stroke="#4c9a52" stroke-width="2"/><rect x="76.346" y="-23" width="198.748" height="17" rx="3" fill="#e8f5e9"/><text x="175.72" y="-10" text-anchor="middle" fill="#000000">TMF646 Appointment Management</text></g><g class="dependent-api" data-api="TMF664" data-function="core" transform="translate(30,317)"><title>[core] TMF664 Resource Function Activation Management v4.0.0
required: false
apiType: openapi
resourceFunction: GET, GET /id, POST, PATCH, DELETE</title><path fill="none" stroke="#4c9a52" stroke-width="2.5" d="M10,-10 A10,10 0 0 1 10,10"/><line x1="20" x2="331.44" y1="0" y2="0" stroke="#4c9a52" stroke-width="2"/><rect x="32" y="-23" width="287.44" height="17" rx="3" fill="#e8f5e9"/><text x="175.72" y="-10" text-anchor="middle" fill="#000000">TMF664 Resource Function Activation Management</text></g><g class="dependent-api" data-api="TMF673" data-function="core" transform="translate(30,363)"><title>[core] TMF673 Geographic Address Management v4.0.0
required: false
apiType: openapi
geographicAddress: GET, GET /id</title><path fill="none" stroke="#4c9a52" stroke-width="2.5" d="M10,-10 A10,10 0 0 1 10,10"/><line x1="20" x2="331.44" y1="0" y2="0" stroke="#4c9a52" stroke-width="2"/><rect x="55.34" y="-23" width="240.76" height="17" rx="3" fill="#e8f5e9"/><text x="175.72" y="-10" text-anchor="middle" fill="#000000">TMF673 Geographic Address Management</text></g><g class="dependent-api" data-api="TMF674" data-function="core" transform="translate(30,409)"><title>[core] TMF674 Geographic Site Management v4.0.0
required: false
apiType: openapi
geographicSite: GET, GET /id</title><path fill="none" stroke="#4c9a52" stroke-width="2.5" d="M10,-10 A10,10 0 0 1 10,10"/><line x1="20" x2="331.44" y1="0" y2="0" stroke="#4c9a52" stroke-width="2"/><rect x="67.00999999999999" y="-23" width="217.42000000000002" height="17" rx="3" fill="#e8f5e9"/><text x="175.72" y="-10" text-anchor="middle" fill="#000000">TMF674 Geographic Site Management</text></g><g class="dependent-api" data-api="TMF675" data-function="core" transform="translate(30,455)"><title>[core] TMF675 Geographic Location Management v4.0.0
required: false
apiType: openapi
geographicLocation: GET, GET /id</title><path fill="none" stroke="#4c9a52" stroke-width="2.5" d="M10,-10 A10,10 0 0 1 10,10"/><line x1="20" x2="331.44" y1="0" y2="0" stroke="#4c9a52" stroke-width="2"/><rect x="54.668000000000006" y="-23" width="242.10399999999998" height="17" rx="3" fill="#e8f5e9"/><text x="175.72" y="-10" text-anchor="middle" fill="#000000">TMF675 Geographic Location Management</text></g><g class="dependent-api" data-api="TMF685" data-function="core" transform="translate(30,501)"><title>[core] TMF685 Resource Pool Management v5.0.0
required: false
apiType: openapi
resourcePool: GET, GET /id, POST, PATCH, DELETE
availabilityCheck: GET, GET /id</title><path fill="none" stroke="#4c9a52" stroke-width="2.5" d="M10,-10 A10,10 0 0 1 10,10"/><line x1="20" x2="331.44" y1="0" y2="0" stroke="#4c9a52" stroke-width="2"/><rect x="70.68200000000002" y="-23" width="210.07599999999996" height="17" rx="3" fill="#e8f5e9"/><text x="175.72" y="-10" text-anchor="middle" fill="#000000">TMF685 Resource Pool Management</text></g><g class="dependent-api" data-api="TMF702" data-function="core" transform="translate(30,547)"><title>[core] TMF702 Resource Activation Management v4.0.0
required: false
apiType: openapi
resource: GET, GET /id, POST, PATCH, DELETE
monitor: GET, GET /id</title><path fill="none" stroke="#4c9a52" stroke-width="2.5" d="M10,-10 A10,10 0 0 1 10,10"/><line x1="20" x2="331.44" y1="0" y2="0" stroke="#4c9a52" stroke-width="2"/><rect x="56.678" y="-23" width="238.084" height="17" rx="3" fill="#e8f5e9"/><text x="175.72" y="-10" text-anchor="middle" fill="#000000">TMF702 Resource Activation Management</text></g></g><g id="exposed-apis"><g class="exposed-api" data-api="TMF652" data-function="core" transform="translate(981,139.9)"><title>[core] TMF652 Resource Order Management v4.0.0
required: true
apiType: openapi
path: not_defined
implementation: not_defined
resourceOrder: GET, GET /id, POST, PATCH, DELETE
cancelResourceOrder: GET, GET /id, POST</title><line x1="0" x2="255.20752000000005" y1="0" y2="0" stroke="#4c9a52" stroke-width="2"/><circle cx="265.20752000000005" cy="0" r="10" fill="#e8f5e9" stroke="#4c9a52" stroke-width="2"/><rect x="17" y="-23" width="231.20752000000005" height="17" rx="3" fill="#e8f5e9"/><text x="132.60376000000002" y="-10" text-anchor="middle" fill="#000000" font-weight="bold">TMF652 Resource Order Management</text></g><g class="exposed-api" data-api="TMF701" data-function="core" transform="translate(981,199.70000000000002)"><title>[core] TMF701 Process Flow Management v4.0.0
required: false
apiType: openapi
path: not_defined
implementation: not_defined
processFlow: POST, GET, GET /id, DELETE
taskFlow: PATCH, GET, GET /id</title><line x1="0" x2="255.20752000000005" y1="0" y2="0" stroke="#4c9a52" stroke-width="2"/><circle cx="265.20752000000005" cy="0" r="10" fill="#e8f5e9" stroke="#4c9a52" stroke-width="2"/><rect x="30.907760000000025" y="-23" width="203.392" height="17" rx="3" fill="#e8f5e9"/><text x="132.60376000000002" y="-10" text-anchor="middle" fill="#000000">TMF701 Process Flow Management</text></g></g><text x="361" y="620" font-style="italic" font-size="11" fill="#666666">Source: component.yaml v1.2.0 · Production · bold API = required</text><g id="legend" transform="translate(30,660)"><rect width="1226.64752" height="64" rx="32" fill="#ffffff" stroke="#000000" stroke-width="1.5"/><text x="40" y="32" dy="0.35em" font-weight="bold">LEGEND</text><g transform="translate(140,32)"><rect x="0" y="-10" width="50" height="20" fill="#ffffff" stroke="#000000"/><text x="60" dy="0.35em" fill="#000000">eTOM Business Activity</text></g><g transform="translate(440.9868799999999,32)"><path fill="#ffffff" stroke="#000000" d="M0,-8 A25,4 0 0 1 50,-8 V8 A25,4 0 0 1 0,8 Z"/><path fill="none" stroke="#000000" d="M0,-8 A25,4 0 0 0 50,-8"/><text x="60" dy="0.35em" fill="#000000">SID Data Entity</text></g><g transform="translate(697.3097599999999,32)"><path fill="none" stroke="#4c9a52" stroke-width="2.5" d="M10,-10 A10,10 0 0 1 10,10"/><line x1="20" x2="50" stroke="#4c9a52" stroke-width="2"/><text x="60" dy="0.35em" fill="#000000">Dependent API</text></g><g transform="translate(952.9846399999999,32)"><line x1="0" x2="30" stroke="#4c9a52" stroke-width="2"/><circle cx="40" r="10" fill="#e8f5e9" stroke="#4c9a52" stroke-width="2"/><text x="60" dy="0.35em" fill="#000000">Exposed API</text></g></g></svg>
