<svg xmlns="http://www.w3.org/2000/svg" version="1.1" width="1206" height="570" viewBox="0 0 1206 570" font-family="Arial, Helvetica, sans-serif" font-size="12"><title>TMFC031: BILL CALCULATION</title><desc>ODA component architecture for TMFC031 (component.yaml v3.0.0, specified). Exposed APIs on the right, dependent APIs on the left. Generated by skills/svg-diagram.</desc><rect width="100%" height="100%" fill="#ffffff"/><text x="30" y="40" font-size="16" font-weight="bold" fill="#000000">TMFC031: BILL CALCULATION</text><g id="component" transform="translate(305,80)"><rect width="620" height="336" fill="#404040" stroke="#000000"/><g id="etoms"><g class="etom" transform="translate(30,30)"><title>componentMetadata.eTOMs is empty</title><rect width="560" height="30" fill="#ffffff" stroke="#000000"/><text x="6" y="15" dy="0.35em" fill="#666666" font-style="italic">No eTOM business activities assigned</text></g></g><g id="sids"/></g><g id="dependent-apis"><g class="dependent-api" data-api="TMF620" transform="translate(30,133)"><title>TMF620 Product Catalog Management v4.0.0
required: false
productOffering: GET, GET /id
productOfferingPrice: GET, GET /id
productSpecification: GET, GET /id</title><path fill="none" stroke="#000000" stroke-width="2" d="M10,-10 A10,10 0 0 1 10,10"/><line x1="20" x2="274.50368000000003" y1="0" y2="0" stroke="#000000" stroke-width="2"/><text x="147.25184000000002" y="-7" text-anchor="middle" fill="#000000">TMF620 Product Catalog Management</text></g><g class="dependent-api" data-api="TMF632" transform="translate(30,179)"><title>TMF632 Party Management v4.0.0
required: false
individual: GET, GET /id
organization: GET, GET /id</title><path fill="none" stroke="#000000" stroke-width="2" d="M10,-10 A10,10 0 0 1 10,10"/><line x1="20" x2="274.50368000000003" y1="0" y2="0" stroke="#000000" stroke-width="2"/><text x="147.25184000000002" y="-7" text-anchor="middle" fill="#000000">TMF632 Party Management</text></g><g class="dependent-api" data-api="TMF635" transform="translate(30,225)"><title>TMF635 Usage Management v4.0.0
required: false
usage: GET, GET /id
usageSpecification: GET, GET /id</title><path fill="none" stroke="#000000" stroke-width="2" d="M10,-10 A10,10 0 0 1 10,10"/><line x1="20" x2="274.50368000000003" y1="0" y2="0" stroke="#000000" stroke-width="2"/><text x="147.25184000000002" y="-7" text-anchor="middle" fill="#000000">TMF635 Usage Management</text></g><g class="dependent-api" data-api="TMF637" transform="translate(30,271)"><title>TMF637 Product Inventory Management v4.0.0
required: true
product: GET, GET /id</title><path fill="none" stroke="#000000" stroke-width="2" d="M10,-10 A10,10 0 0 1 10,10"/><line x1="20" x2="274.50368000000003" y1="0" y2="0" stroke="#000000" stroke-width="2"/><text x="147.25184000000002" y="-7" text-anchor="middle" fill="#000000" font-weight="bold">TMF637 Product Inventory Management</text></g><g class="dependent-api" data-api="TMF666" transform="translate(30,317)"><title>TMF666 Account Management v4.0.0
required: true
BillingAccount: GET, GET /id
BillingCycleSpecification: GET, GET /id</title><path fill="none" stroke="#000000" stroke-width="2" d="M10,-10 A10,10 0 0 1 10,10"/><line x1="20" x2="274.50368000000003" y1="0" y2="0" stroke="#000000" stroke-width="2"/><text x="147.25184000000002" y="-7" text-anchor="middle" fill="#000000" font-weight="bold">TMF666 Account Management</text></g><g class="dependent-api" data-api="TMF701" transform="translate(30,363)"><title>TMF701 Process Flow Management v4.0.0
required: false
processFlow: POST, GET, GET /id, PATCH</title><path fill="none" stroke="#000000" stroke-width="2" d="M10,-10 A10,10 0 0 1 10,10"/><line x1="20" x2="274.50368000000003" y1="0" y2="0" stroke="#000000" stroke-width="2"/><text x="147.25184000000002" y="-7" text-anchor="middle" fill="#000000">TMF701 Process Flow Management</text></g></g><g id="exposed-apis"><g class="exposed-api" data-api="TMF678" transform="translate(925,139.9)"><title>TMF678 Customer Bill Management v4.0.0
required: true
appliedCustomerBillingRate: GET, GET /id</title><line x1="0" x2="230.2104" y1="0" y2="0" stroke="#000000" stroke-width="2"/><circle cx="240.2104" cy="0" r="10" fill="#ffffff" stroke="#000000" stroke-width="1.5"/><text x="120.1052" y="-7" text-anchor="middle" fill="#000000" font-weight="bold">TMF678 Customer Bill Management</text></g><g class="exposed-api" data-api="TMF701" transform="translate(925,199.7)"><title>TMF701 Process Flow Management v4.0.0
required: false
processFlow: GET, GET /id, POST, DELETE /id
taskFlow: GET, GET /id, PATCH /id</title><line x1="0" x2="230.2104" y1="0" y2="0" stroke="#000000" stroke-width="2"/><circle cx="240.2104" cy="0" r="10" fill="#ffffff" stroke="#000000" stroke-width="1.5"/><text x="120.1052" y="-7" text-anchor="middle" fill="#000000">TMF701 Process Flow Management</text></g></g><text x="305" y="436" font-style="italic" font-size="11" fill="#666666">Source: component.yaml v3.0.0 · CoreCommerce · bold API = required</text><g id="legend" transform="translate(30,476)"><rect width="1145.2104" height="64" rx="32" fill="#ffffff" stroke="#000000" stroke-width="1.5"/><text x="40" y="32" dy="0.35em" font-weight="bold">LEGEND</text><g transform="translate(140,32)"><rect x="0" y="-10" width="50" height="20" fill="#ffffff" stroke="#000000"/><text x="60" dy="0.35em" fill="#000000">eTOM Business Activity</text></g><g transform="translate(391.3026,32)"><path fill="#ffffff" stroke="#000000" d="M0,-8 A25,4 0 0 1 50,-8 V8 A25,4 0 0 1 0,8 Z"/><path fill="none" stroke="#000000" d="M0,-8 A25,4 0 0 0 50,-8"/><text x="60" dy="0.35em" fill="#000000">SID Data Entity</text></g><g transform="translate(642.6052,32)"><path fill="none" stroke="#000000" stroke-width="2" d="M10,-10 A10,10 0 0 1 10,10"/><line x1="20" x2="50" stroke="#000000" stroke-width="2"/><text x="60" dy="0.35em" fill="#000000">Dependent API</text></g><g transform="translate(893.9078,32)"><line x1="0" x2="30" stroke="#000000" stroke-width="2"/><circle cx="40" r="10" fill="#ffffff" stroke="#000000" stroke-width="1.5"/><text x="60" dy="0.35em" fill="#000000">Exposed API</text></g></g></svg>
