<svg xmlns="http://www.w3.org/2000/svg" version="1.1" width="1243" height="616" viewBox="0 0 1243 616" font-family="Arial, Helvetica, sans-serif" font-size="12"><title>TMFC012: RESOURCE INVENTORY</title><desc>ODA component architecture for TMFC012 (component.yaml v2.2.0, specified). Exposed APIs on the right, dependent APIs on the left. Generated by skills/svg-diagram.</desc><rect width="100%" height="100%" fill="#ffffff"/><text x="30" y="40" font-size="16" font-weight="bold" fill="#000000">TMFC012: RESOURCE INVENTORY</text><g id="component" transform="translate(307,80)"><rect width="620" height="382" fill="#404040" stroke="#000000"/><g id="etoms"><g class="etom" transform="translate(30,30)"><title>1.5.4 Resource Support Readiness (v23.0)</title><rect width="560" height="30" fill="#ffffff" stroke="#000000"/><text x="6" y="15" dy="0.35em" fill="#000000">L2 - Resource Support Readiness</text></g></g><g id="sids"><g class="sid" transform="translate(30,100)"><title>Resource_Domain › Resource_ABE › v25.0</title><path fill="#ffffff" stroke="#000000" d="M0,5 A88,5 0 0 1 176,5 V33 A88,5 0 0 1 0,33 Z"/><path fill="none" stroke="#000000" d="M0,5 A88,5 0 0 0 176,5"/><text text-anchor="middle" fill="#000000"><tspan x="88" y="21.5" dy="0.35em">Resource</tspan></text></g></g></g><g id="dependent-apis"><g class="dependent-api" data-api="TMF632" transform="translate(30,133)"><title>TMF632 Party Management v4.0.0
required: false
individual: GET, GET /id
organization: GET, GET /id</title><path fill="none" stroke="#000000" stroke-width="2" d="M10,-10 A10,10 0 0 1 10,10"/><line x1="20" x2="276.63512000000003" y1="0" y2="0" stroke="#000000" stroke-width="2"/><text x="148.31756000000001" y="-7" text-anchor="middle" fill="#000000">TMF632 Party Management</text></g><g class="dependent-api" data-api="TMF634" transform="translate(30,179)"><title>TMF634 Resource Catalog Management v4.0.0
required: true
resourceSpecification: GET, GET /id</title><path fill="none" stroke="#000000" stroke-width="2" d="M10,-10 A10,10 0 0 1 10,10"/><line x1="20" x2="276.63512000000003" y1="0" y2="0" stroke="#000000" stroke-width="2"/><text x="148.31756000000001" y="-7" text-anchor="middle" fill="#000000" font-weight="bold">TMF634 Resource Catalog Management</text></g><g class="dependent-api" data-api="TMF639" transform="translate(30,225)"><title>TMF639 Resource Inventory Management v4.0.0
required: false
resource: GET, GET /id, POST, PATCH, DELETE</title><path fill="none" stroke="#000000" stroke-width="2" d="M10,-10 A10,10 0 0 1 10,10"/><line x1="20" x2="276.63512000000003" y1="0" y2="0" stroke="#000000" stroke-width="2"/><text x="148.31756000000001" y="-7" text-anchor="middle" fill="#000000">TMF639 Resource Inventory Management</text></g><g class="dependent-api" data-api="TMF669" transform="translate(30,271)"><title>TMF669 Party Role Management v4.0.0
required: false
partyRole: GET, GET /id</title><path fill="none" stroke="#000000" stroke-width="2" d="M10,-10 A10,10 0 0 1 10,10"/><line x1="20" x2="276.63512000000003" y1="0" y2="0" stroke="#000000" stroke-width="2"/><text x="148.31756000000001" y="-7" text-anchor="middle" fill="#000000">TMF669 Party Role Management</text></g><g class="dependent-api" data-api="TMF673" transform="translate(30,317)"><title>TMF673 Geographic Address Management v4.0.0
required: false
geographicAddress: GET, GET /id
geographicSubAddress: GET, GET /id</title><path fill="none" stroke="#000000" stroke-width="2" d="M10,-10 A10,10 0 0 1 10,10"/><line x1="20" x2="276.63512000000003" y1="0" y2="0" stroke="#000000" stroke-width="2"/><text x="148.31756000000001" y="-7" text-anchor="middle" fill="#000000">TMF673 Geographic Address Management</text></g><g class="dependent-api" data-api="TMF674" transform="translate(30,363)"><title>TMF674 Geographic Site Management v4.0.0
required: false
geographicSite: GET, GET /id</title><path fill="none" stroke="#000000" stroke-width="2" d="M10,-10 A10,10 0 0 1 10,10"/><line x1="20" x2="276.63512000000003" y1="0" y2="0" stroke="#000000" stroke-width="2"/><text x="148.31756000000001" y="-7" text-anchor="middle" fill="#000000">TMF674 Geographic Site Management</text></g><g class="dependent-api" data-api="TMF675" transform="translate(30,409)"><title>TMF675 Geographic Location Management v4.0.0
required: false
geographicLocation: GET, GET /id</title><path fill="none" stroke="#000000" stroke-width="2" d="M10,-10 A10,10 0 0 1 10,10"/><line x1="20" x2="276.63512000000003" y1="0" y2="0" stroke="#000000" stroke-width="2"/><text x="148.31756000000001" y="-7" text-anchor="middle" fill="#000000">TMF675 Geographic Location Management</text></g></g><g id="exposed-apis"><g class="exposed-api" data-api="TMF639" transform="translate(927,139.9)"><title>TMF639 Resource Inventory Management v4.0.0
required: true
resource: GET, GET /id, POST, PATCH, DELETE</title><line x1="0" x2="265.1994" y1="0" y2="0" stroke="#000000" stroke-width="2"/><circle cx="275.1994" cy="0" r="10" fill="#ffffff" stroke="#000000" stroke-width="1.5"/><text x="137.5997" y="-7" text-anchor="middle" fill="#000000" font-weight="bold">TMF639 Resource Inventory Management</text></g><g class="exposed-api" data-api="TMF685" transform="translate(927,199.7)"><title>TMF685 Resource Pool Management v5.0.0
required: false
capacitySpecification: POST, GET, GET /id, PATCH, DELETE
resourcePoolSpecification: POST, PATCH, GET, GET /id, DELETE
resourcePool: POST, PATCH, GET, GET /id, DELETE
resourcePoolSpecification: POST, PATCH, GET, GET /id, DELETE
availabilityCheck: POST, GET, GET /id
push: POST, GET, GET /id
extract: POST, GET, GET /id</title><line x1="0" x2="265.1994" y1="0" y2="0" stroke="#000000" stroke-width="2"/><circle cx="275.1994" cy="0" r="10" fill="#ffffff" stroke="#000000" stroke-width="1.5"/><text x="137.5997" y="-7" text-anchor="middle" fill="#000000">TMF685 Resource Pool Management</text></g><g class="exposed-api" data-api="TMF701" transform="translate(927,259.5)"><title>TMF701 Process Flow Management v4.0.0
required: false
processFlow: POST, GET, GET /id, DELETE
taskFlow: PATCH, GET, GET /id</title><line x1="0" x2="265.1994" y1="0" y2="0" stroke="#000000" stroke-width="2"/><circle cx="275.1994" cy="0" r="10" fill="#ffffff" stroke="#000000" stroke-width="1.5"/><text x="137.5997" y="-7" text-anchor="middle" fill="#000000">TMF701 Process Flow Management</text></g><g class="exposed-api" data-api="TMF716" transform="translate(927,319.3)"><title>TMF716 Resource Reservation v4.0.0
required: false
resourceReservation: POST, GET, GET /id, PATCH, DELETE
cancelResourceReservation: POST, GET, GET /id</title><line x1="0" x2="265.1994" y1="0" y2="0" stroke="#000000" stroke-width="2"/><circle cx="275.1994" cy="0" r="10" fill="#ffffff" stroke="#000000" stroke-width="1.5"/><text x="137.5997" y="-7" text-anchor="middle" fill="#000000">TMF716 Resource Reservation</text></g></g><text x="307" y="482" font-style="italic" font-size="11" fill="#666666">Source: component.yaml v2.2.0 · Production · bold API = required</text><g id="legend" transform="translate(30,522)"><rect width="1182.1994" height="64" rx="32" fill="#ffffff" stroke="#000000" stroke-width="1.5"/><text x="40" y="32" dy="0.35em" font-weight="bold">LEGEND</text><g transform="translate(140,32)"><rect x="0" y="-10" width="50" height="20" fill="#ffffff" stroke="#000000"/><text x="60" dy="0.35em" fill="#000000">eTOM Business Activity</text></g><g transform="translate(400.54985,32)"><path fill="#ffffff" stroke="#000000" d="M0,-8 A25,4 0 0 1 50,-8 V8 A25,4 0 0 1 0,8 Z"/><path fill="none" stroke="#000000" d="M0,-8 A25,4 0 0 0 50,-8"/><text x="60" dy="0.35em" fill="#000000">SID Data Entity</text></g><g transform="translate(661.0997,32)"><path fill="none" stroke="#000000" stroke-width="2" d="M10,-10 A10,10 0 0 1 10,10"/><line x1="20" x2="50" stroke="#000000" stroke-width="2"/><text x="60" dy="0.35em" fill="#000000">Dependent API</text></g><g transform="translate(921.64955,32)"><line x1="0" x2="30" stroke="#000000" stroke-width="2"/><circle cx="40" r="10" fill="#ffffff" stroke="#000000" stroke-width="1.5"/><text x="60" dy="0.35em" fill="#000000">Exposed API</text></g></g></svg>
