<svg xmlns="http://www.w3.org/2000/svg" version="1.1" width="1230" height="708" viewBox="0 0 1230 708" font-family="Arial, Helvetica, sans-serif" font-size="12"><title>TMFC008: SERVICE INVENTORY</title><desc>ODA component architecture for TMFC008 (component.yaml v1.2.0, specified). Exposed APIs on the right, dependent APIs on the left. Generated by skills/svg-diagram.</desc><rect width="100%" height="100%" fill="#ffffff"/><text x="30" y="40" font-size="16" font-weight="bold" fill="#000000">TMFC008: SERVICE INVENTORY</text><g id="component" transform="translate(306,80)"><rect width="620" height="474" fill="#404040" stroke="#000000"/><g id="etoms"><g class="etom" transform="translate(30,30)"><title>1.4.4 Service Support Readiness (v23.0)</title><rect width="560" height="30" fill="#ffffff" stroke="#000000"/><text x="6" y="15" dy="0.35em" fill="#000000">L2 - Service Support Readiness</text></g></g><g id="sids"><g class="sid" transform="translate(30,100)"><title>Service_Domain › Service_ABE › v25.0</title><path fill="#ffffff" stroke="#000000" d="M0,5 A88,5 0 0 1 176,5 V33 A88,5 0 0 1 0,33 Z"/><path fill="none" stroke="#000000" d="M0,5 A88,5 0 0 0 176,5"/><text text-anchor="middle" fill="#000000"><tspan x="88" y="21.5" dy="0.35em">Service</tspan></text></g></g></g><g id="dependent-apis"><g class="dependent-api" data-api="TMF632" transform="translate(30,133)"><title>TMF632 Party Management v4.0.0
required: false
individual: GET, GET /id
organization: GET, GET /id</title><path fill="none" stroke="#000000" stroke-width="2" d="M10,-10 A10,10 0 0 1 10,10"/><line x1="20" x2="276.104" y1="0" y2="0" stroke="#000000" stroke-width="2"/><text x="148.052" y="-7" text-anchor="middle" fill="#000000">TMF632 Party Management</text></g><g class="dependent-api" data-api="TMF633" transform="translate(30,179)"><title>TMF633 Service Catalog Management v4.0.0
required: true
serviceSpecification: GET, GET /id</title><path fill="none" stroke="#000000" stroke-width="2" d="M10,-10 A10,10 0 0 1 10,10"/><line x1="20" x2="276.104" y1="0" y2="0" stroke="#000000" stroke-width="2"/><text x="148.052" y="-7" text-anchor="middle" fill="#000000" font-weight="bold">TMF633 Service Catalog Management</text></g><g class="dependent-api" data-api="TMF638" transform="translate(30,225)"><title>TMF638 Service Inventory Management v4.0.0
required: false
service: GET, GET /id</title><path fill="none" stroke="#000000" stroke-width="2" d="M10,-10 A10,10 0 0 1 10,10"/><line x1="20" x2="276.104" y1="0" y2="0" stroke="#000000" stroke-width="2"/><text x="148.052" y="-7" text-anchor="middle" fill="#000000">TMF638 Service Inventory Management</text></g><g class="dependent-api" data-api="TMF639" transform="translate(30,271)"><title>TMF639 Resource Inventory Management v4.0.0
required: false
resource: GET, GET /id</title><path fill="none" stroke="#000000" stroke-width="2" d="M10,-10 A10,10 0 0 1 10,10"/><line x1="20" x2="276.104" y1="0" y2="0" stroke="#000000" stroke-width="2"/><text x="148.052" y="-7" text-anchor="middle" fill="#000000">TMF639 Resource Inventory Management</text></g><g class="dependent-api" data-api="TMF641" transform="translate(30,317)"><title>TMF641 Service Ordering Management v4.0.0
required: false
serviceOrder: GET, GET /id</title><path fill="none" stroke="#000000" stroke-width="2" d="M10,-10 A10,10 0 0 1 10,10"/><line x1="20" x2="276.104" y1="0" y2="0" stroke="#000000" stroke-width="2"/><text x="148.052" y="-7" text-anchor="middle" fill="#000000">TMF641 Service Ordering Management</text></g><g class="dependent-api" data-api="TMF669" transform="translate(30,363)"><title>TMF669 Party Role Management v4.0.0
required: false
PartyRole: GET, GET /id</title><path fill="none" stroke="#000000" stroke-width="2" d="M10,-10 A10,10 0 0 1 10,10"/><line x1="20" x2="276.104" y1="0" y2="0" stroke="#000000" stroke-width="2"/><text x="148.052" y="-7" text-anchor="middle" fill="#000000">TMF669 Party Role Management</text></g><g class="dependent-api" data-api="TMF673" transform="translate(30,409)"><title>TMF673 Geographic Address Management v4.0.0
required: false
geographicAddress: GET, GET /id
geographicSubAddress: GET, GET /id</title><path fill="none" stroke="#000000" stroke-width="2" d="M10,-10 A10,10 0 0 1 10,10"/><line x1="20" x2="276.104" y1="0" y2="0" stroke="#000000" stroke-width="2"/><text x="148.052" y="-7" text-anchor="middle" fill="#000000">TMF673 Geographic Address Management</text></g><g class="dependent-api" data-api="TMF674" transform="translate(30,455)"><title>TMF674 Geographic Site Management v4.0.0
required: false
geographicSite: GET, GET /id</title><path fill="none" stroke="#000000" stroke-width="2" d="M10,-10 A10,10 0 0 1 10,10"/><line x1="20" x2="276.104" y1="0" y2="0" stroke="#000000" stroke-width="2"/><text x="148.052" y="-7" text-anchor="middle" fill="#000000">TMF674 Geographic Site Management</text></g><g class="dependent-api" data-api="TMF675" transform="translate(30,501)"><title>TMF675 Geographic Location Management v4.0.0
required: false
geographicLocation: GET, GET /id</title><path fill="none" stroke="#000000" stroke-width="2" d="M10,-10 A10,10 0 0 1 10,10"/><line x1="20" x2="276.104" y1="0" y2="0" stroke="#000000" stroke-width="2"/><text x="148.052" y="-7" text-anchor="middle" fill="#000000">TMF675 Geographic Location Management</text></g></g><g id="exposed-apis"><g class="exposed-api" data-api="TMF638" transform="translate(926,139.9)"><title>TMF638 Service Inventory Management v4.0.0
required: true
service: GET, GET /id, POST, PATCH, DELETE</title><line x1="0" x2="253.06560000000002" y1="0" y2="0" stroke="#000000" stroke-width="2"/><circle cx="263.0656" cy="0" r="10" fill="#ffffff" stroke="#000000" stroke-width="1.5"/><text x="131.5328" y="-7" text-anchor="middle" fill="#000000" font-weight="bold">TMF638 Service Inventory Management</text></g><g class="exposed-api" data-api="TMF701" transform="translate(926,199.7)"><title>TMF701 Process Flow Management v4.0.0
required: false
processFlow: POST, GET, GET /id, DELETE
taskFlow: PATCH, GET, GET /id</title><line x1="0" x2="253.06560000000002" y1="0" y2="0" stroke="#000000" stroke-width="2"/><circle cx="263.0656" cy="0" r="10" fill="#ffffff" stroke="#000000" stroke-width="1.5"/><text x="131.5328" y="-7" text-anchor="middle" fill="#000000">TMF701 Process Flow Management</text></g></g><text x="306" y="574" font-style="italic" font-size="11" fill="#666666">Source: component.yaml v1.2.0 · Production · bold API = required</text><g id="legend" transform="translate(30,614)"><rect width="1169.0656" height="64" rx="32" fill="#ffffff" stroke="#000000" stroke-width="1.5"/><text x="40" y="32" dy="0.35em" font-weight="bold">LEGEND</text><g transform="translate(140,32)"><rect x="0" y="-10" width="50" height="20" fill="#ffffff" stroke="#000000"/><text x="60" dy="0.35em" fill="#000000">eTOM Business Activity</text></g><g transform="translate(397.2664,32)"><path fill="#ffffff" stroke="#000000" d="M0,-8 A25,4 0 0 1 50,-8 V8 A25,4 0 0 1 0,8 Z"/><path fill="none" stroke="#000000" d="M0,-8 A25,4 0 0 0 50,-8"/><text x="60" dy="0.35em" fill="#000000">SID Data Entity</text></g><g transform="translate(654.5328,32)"><path fill="none" stroke="#000000" stroke-width="2" d="M10,-10 A10,10 0 0 1 10,10"/><line x1="20" x2="50" stroke="#000000" stroke-width="2"/><text x="60" dy="0.35em" fill="#000000">Dependent API</text></g><g transform="translate(911.7991999999999,32)"><line x1="0" x2="30" stroke="#000000" stroke-width="2"/><circle cx="40" r="10" fill="#ffffff" stroke="#000000" stroke-width="1.5"/><text x="60" dy="0.35em" fill="#000000">Exposed API</text></g></g></svg>
