<svg xmlns="http://www.w3.org/2000/svg" version="1.1" width="1175" height="616" viewBox="0 0 1175 616" font-family="Arial, Helvetica, sans-serif" font-size="12"><title>TMFC036: LEAD AND OPPORTUNITY MANAGEMENT</title><desc>ODA component architecture for TMFC036 (component.yaml v1.2.0, specified). Exposed APIs on the right, dependent APIs on the left. Generated by skills/svg-diagram.</desc><rect width="100%" height="100%" fill="#ffffff"/><text x="30" y="40" font-size="16" font-weight="bold" fill="#000000">TMFC036: LEAD AND OPPORTUNITY MANAGEMENT</text><g id="component" transform="translate(287,80)"><rect width="620" height="382" fill="#404040" stroke="#000000"/><g id="etoms"><g class="etom" transform="translate(30,30)"><title>1.1.7 Market Sales Support &amp; Readiness (v23.0)</title><rect width="560" height="30" fill="#ffffff" stroke="#000000"/><text x="6" y="15" dy="0.35em" fill="#000000">L2 - Market Sales Support &amp; Readiness</text></g><g class="etom" transform="translate(30,70)"><title>1.1.9 Selling (v23.0)</title><rect width="560" height="30" fill="#ffffff" stroke="#000000"/><text x="6" y="15" dy="0.35em" fill="#000000">L2 - Selling</text></g><g class="etom" transform="translate(30,110)"><title>1.1.11 Contact/Lead/Prospect Management (v23.0)</title><rect width="560" height="30" fill="#ffffff" stroke="#000000"/><text x="6" y="15" dy="0.35em" fill="#000000">L2 - Contact/Lead/Prospect Management</text></g></g><g id="sids"><g class="sid" transform="translate(30,180)"><title>Market_&amp;_Sales_Domain › Sales_Lead_and_Opportunity_ABE › Sales_Lead_ABE › v25.0</title><path fill="#ffffff" stroke="#000000" d="M0,5 A88,5 0 0 1 176,5 V33 A88,5 0 0 1 0,33 Z"/><path fill="none" stroke="#000000" d="M0,5 A88,5 0 0 0 176,5"/><text text-anchor="middle" fill="#000000"><tspan x="88" y="21.5" dy="0.35em">Sales Lead</tspan></text></g><g class="sid" transform="translate(222,180)"><title>Market_&amp;_Sales_Domain › Sales_Lead_and_Opportunity_ABE › Sales_Opportunity_ABE › v25.0</title><path fill="#ffffff" stroke="#000000" d="M0,5 A88,5 0 0 1 176,5 V33 A88,5 0 0 1 0,33 Z"/><path fill="none" stroke="#000000" d="M0,5 A88,5 0 0 0 176,5"/><text text-anchor="middle" fill="#000000"><tspan x="88" y="21.5" dy="0.35em">Sales Opportunity</tspan></text></g></g></g><g id="dependent-apis"><g class="dependent-api" data-api="TMF620" transform="translate(30,133)"><title>TMF620 Product Catalog Management v4.0.0
required: false
productOffering: GET, GET/id
productOfferingPrice: GET, GET/id</title><path fill="none" stroke="#000000" stroke-width="2" d="M10,-10 A10,10 0 0 1 10,10"/><line x1="20" x2="256.748" y1="0" y2="0" stroke="#000000" stroke-width="2"/><text x="138.374" y="-7" text-anchor="middle" fill="#000000">TMF620 Product Catalog Management</text></g><g class="dependent-api" data-api="TMF622" transform="translate(30,179)"><title>TMF622 Product Ordering Management v4.0.0
required: false
productOrder: GET, GET /id</title><path fill="none" stroke="#000000" stroke-width="2" d="M10,-10 A10,10 0 0 1 10,10"/><line x1="20" x2="256.748" y1="0" y2="0" stroke="#000000" stroke-width="2"/><text x="138.374" y="-7" text-anchor="middle" fill="#000000">TMF622 Product Ordering Management</text></g><g class="dependent-api" data-api="TMF632" transform="translate(30,225)"><title>TMF632 Party Management v4.0.0
required: false
individual: GET, GET/id
organization: GET, GET/id</title><path fill="none" stroke="#000000" stroke-width="2" d="M10,-10 A10,10 0 0 1 10,10"/><line x1="20" x2="256.748" y1="0" y2="0" stroke="#000000" stroke-width="2"/><text x="138.374" y="-7" text-anchor="middle" fill="#000000">TMF632 Party Management</text></g><g class="dependent-api" data-api="TMF648" transform="translate(30,271)"><title>TMF648 Quote Management v4.0.0
required: false
quote: GET, GET /id</title><path fill="none" stroke="#000000" stroke-width="2" d="M10,-10 A10,10 0 0 1 10,10"/><line x1="20" x2="256.748" y1="0" y2="0" stroke="#000000" stroke-width="2"/><text x="138.374" y="-7" text-anchor="middle" fill="#000000">TMF648 Quote Management</text></g><g class="dependent-api" data-api="TMF651" transform="translate(30,317)"><title>TMF651 Agreement Management v4.0.0
required: false
agreement: GET, GET/id
agreementSpecification: GET, GET/id</title><path fill="none" stroke="#000000" stroke-width="2" d="M10,-10 A10,10 0 0 1 10,10"/><line x1="20" x2="256.748" y1="0" y2="0" stroke="#000000" stroke-width="2"/><text x="138.374" y="-7" text-anchor="middle" fill="#000000">TMF651 Agreement Management</text></g><g class="dependent-api" data-api="TMF669" transform="translate(30,363)"><title>TMF669 Party Role Management v4.0.0
required: false
partyRole: GET, GET/id</title><path fill="none" stroke="#000000" stroke-width="2" d="M10,-10 A10,10 0 0 1 10,10"/><line x1="20" x2="256.748" y1="0" y2="0" stroke="#000000" stroke-width="2"/><text x="138.374" y="-7" text-anchor="middle" fill="#000000">TMF669 Party Role Management</text></g><g class="dependent-api" data-api="TMF701" transform="translate(30,409)"><title>TMF701 Process Flow Management v4.0.0
required: false
processFlow: POST, GET, GET /id, DELETE
taskFlow: PATCH, GET, GET /id</title><path fill="none" stroke="#000000" stroke-width="2" d="M10,-10 A10,10 0 0 1 10,10"/><line x1="20" x2="256.748" y1="0" y2="0" stroke="#000000" stroke-width="2"/><text x="138.374" y="-7" text-anchor="middle" fill="#000000">TMF701 Process Flow Management</text></g></g><g id="exposed-apis"><g class="exposed-api" data-api="TMF699" transform="translate(907,139.9)"><title>TMF699 Sales Management v4.0.0
required: true
salesLead: GET, GET /id, POST, PATCH, DELETE
salesOpportunity: GET, GET /id, POST, PATCH, DELETE</title><line x1="0" x2="217.392" y1="0" y2="0" stroke="#000000" stroke-width="2"/><circle cx="227.392" cy="0" r="10" fill="#ffffff" stroke="#000000" stroke-width="1.5"/><text x="113.696" y="-7" text-anchor="middle" fill="#000000" font-weight="bold">TMF699 Sales Management</text></g><g class="exposed-api" data-api="TMF701" transform="translate(907,199.7)"><title>TMF701 Process Flow Management v4.0.0
required: false
processFlow: POST, GET, GET /id, DELETE
taskFlow: PATCH, GET, GET /id</title><line x1="0" x2="217.392" y1="0" y2="0" stroke="#000000" stroke-width="2"/><circle cx="227.392" cy="0" r="10" fill="#ffffff" stroke="#000000" stroke-width="1.5"/><text x="113.696" y="-7" text-anchor="middle" fill="#000000">TMF701 Process Flow Management</text></g></g><text x="287" y="482" font-style="italic" font-size="11" fill="#666666">Source: component.yaml v1.2.0 · PartyManagement · bold API = required</text><g id="legend" transform="translate(30,522)"><rect width="1114.392" height="64" rx="32" fill="#ffffff" stroke="#000000" stroke-width="1.5"/><text x="40" y="32" dy="0.35em" font-weight="bold">LEGEND</text><g transform="translate(140,32)"><rect x="0" y="-10" width="50" height="20" fill="#ffffff" stroke="#000000"/><text x="60" dy="0.35em" fill="#000000">eTOM Business Activity</text></g><g transform="translate(383.598,32)"><path fill="#ffffff" stroke="#000000" d="M0,-8 A25,4 0 0 1 50,-8 V8 A25,4 0 0 1 0,8 Z"/><path fill="none" stroke="#000000" d="M0,-8 A25,4 0 0 0 50,-8"/><text x="60" dy="0.35em" fill="#000000">SID Data Entity</text></g><g transform="translate(627.196,32)"><path fill="none" stroke="#000000" stroke-width="2" d="M10,-10 A10,10 0 0 1 10,10"/><line x1="20" x2="50" stroke="#000000" stroke-width="2"/><text x="60" dy="0.35em" fill="#000000">Dependent API</text></g><g transform="translate(870.7940000000001,32)"><line x1="0" x2="30" stroke="#000000" stroke-width="2"/><circle cx="40" r="10" fill="#ffffff" stroke="#000000" stroke-width="1.5"/><text x="60" dy="0.35em" fill="#000000">Exposed API</text></g></g></svg>
