<svg xmlns="http://www.w3.org/2000/svg" version="1.1" width="1189" height="478" viewBox="0 0 1189 478" font-family="Arial, Helvetica, sans-serif" font-size="12"><title>TMFC022: PARTY PRIVACY MANAGEMENT</title><desc>ODA component architecture for TMFC022 (component.yaml v1.1.0, specified). Exposed APIs on the right, dependent APIs on the left; green = core, blue = management, red = security function. Generated by skills/svg-diagram.</desc><rect width="100%" height="100%" fill="#ffffff"/><text x="30" y="40" font-size="16" font-weight="bold" fill="#000000">TMFC022: PARTY PRIVACY MANAGEMENT</text><g id="component" transform="translate(291,80)"><rect width="620" height="244" fill="#404040" stroke="#000000"/><g id="etoms"><g class="etom" transform="translate(30,30)"><title>componentMetadata.eTOMs is empty</title><rect width="560" height="30" fill="#ffffff" stroke="#000000"/><text x="6" y="15" dy="0.35em" fill="#666666" font-style="italic">No eTOM business activities assigned</text></g></g><g id="sids"><g class="sid" transform="translate(30,100)"><title>Party_Domain › Party_Privacy_ABE › Party_Privacy_Profile_ABE › v25.0</title><path fill="#ffffff" stroke="#000000" d="M0,5 A88,5 0 0 1 176,5 V33 A88,5 0 0 1 0,33 Z"/><path fill="none" stroke="#000000" d="M0,5 A88,5 0 0 0 176,5"/><text text-anchor="middle" fill="#000000"><tspan x="88" y="21.5" dy="0.35em">Party Privacy Profile</tspan></text></g></g></g><g id="dependent-apis"><g class="dependent-api" data-api="TMF620" data-function="core" transform="translate(30,133)"><title>[core] TMF620 Product Catalog Management v4.0.0
required: false
apiType: openapi
productOffering: GET, GET /id</title><path fill="none" stroke="#4c9a52" stroke-width="2.5" d="M10,-10 A10,10 0 0 1 10,10"/><line x1="20" x2="261.42" y1="0" y2="0" stroke="#4c9a52" stroke-width="2"/><rect x="32" y="-23" width="217.42000000000002" height="17" rx="3" fill="#e8f5e9"/><text x="140.71" y="-10" text-anchor="middle" fill="#000000">TMF620 Product Catalog Management</text></g><g class="dependent-api" data-api="TMF632" data-function="core" transform="translate(30,179)"><title>[core] TMF632 Party Management v4.0.0
required: true
apiType: openapi
individual: GET, GET /id
organization: GET, GET /id</title><path fill="none" stroke="#4c9a52" stroke-width="2.5" d="M10,-10 A10,10 0 0 1 10,10"/><line x1="20" x2="261.42" y1="0" y2="0" stroke="#4c9a52" stroke-width="2"/><rect x="55.78742" y="-23" width="169.84516000000002" height="17" rx="3" fill="#e8f5e9"/><text x="140.71" y="-10" text-anchor="middle" fill="#000000" font-weight="bold">TMF632 Party Management</text></g><g class="dependent-api" data-api="TMF667" data-function="core" transform="translate(30,225)"><title>[core] TMF667 Document Management v4.0.0
required: false
apiType: openapi
document: GET, GET /id, POST</title><path fill="none" stroke="#4c9a52" stroke-width="2.5" d="M10,-10 A10,10 0 0 1 10,10"/><line x1="20" x2="261.42" y1="0" y2="0" stroke="#4c9a52" stroke-width="2"/><rect x="47.678" y="-23" width="186.06400000000002" height="17" rx="3" fill="#e8f5e9"/><text x="140.71" y="-10" text-anchor="middle" fill="#000000">TMF667 Document Management</text></g><g class="dependent-api" data-api="TMF669" data-function="core" transform="translate(30,271)"><title>[core] TMF669 Party Role Management v4.0.0
required: true
apiType: openapi
partyRole: GET, GET /id</title><path fill="none" stroke="#4c9a52" stroke-width="2.5" d="M10,-10 A10,10 0 0 1 10,10"/><line x1="20" x2="261.42" y1="0" y2="0" stroke="#4c9a52" stroke-width="2"/><rect x="40.80314000000001" y="-23" width="199.81372" height="17" rx="3" fill="#e8f5e9"/><text x="140.71" y="-10" text-anchor="middle" fill="#000000" font-weight="bold">TMF669 Party Role Management</text></g></g><g id="exposed-apis"><g class="exposed-api" data-api="TMF644" data-function="core" transform="translate(911,139.9)"><title>[core] TMF644 Privacy Management v4.0.0
required: true
apiType: openapi
path: not_defined
implementation: not_defined
partyPrivacyProfileSpecification: GET, GET /id, POST, PATCH /id, DELETE
partyPrivacyProfile: GET, GET /id, POST, PATCH /id, DELETE
partyPrivacyAgreement: GET, GET /id, POST, PATCH /id, DELETE</title><line x1="0" x2="227.392" y1="0" y2="0" stroke="#4c9a52" stroke-width="2"/><circle cx="237.392" cy="0" r="10" fill="#e8f5e9" stroke="#4c9a52" stroke-width="2"/><rect x="27.71293999999999" y="-23" width="181.96612000000002" height="17" rx="3" fill="#e8f5e9"/><text x="118.696" y="-10" text-anchor="middle" fill="#000000" font-weight="bold">TMF644 Privacy Management</text></g><g class="exposed-api" data-api="TMF701" data-function="core" transform="translate(911,199.70000000000002)"><title>[core] TMF701 Process Flow Management v4.0.0
required: false
apiType: openapi
path: not_defined
implementation: not_defined
processFlow: GET, GET /id, POST, DELETE /id
taskFlow: GET, GET /id, PATCH /id</title><line x1="0" x2="227.392" y1="0" y2="0" stroke="#4c9a52" stroke-width="2"/><circle cx="237.392" cy="0" r="10" fill="#e8f5e9" stroke="#4c9a52" stroke-width="2"/><rect x="17" y="-23" width="203.392" height="17" rx="3" fill="#e8f5e9"/><text x="118.696" y="-10" text-anchor="middle" fill="#000000">TMF701 Process Flow Management</text></g></g><text x="291" y="344" font-style="italic" font-size="11" fill="#666666">Source: component.yaml v1.1.0 · PartyManagement · bold API = required</text><g id="legend" transform="translate(30,384)"><rect width="1128.8120000000001" height="64" rx="32" fill="#ffffff" stroke="#000000" stroke-width="1.5"/><text x="40" y="32" dy="0.35em" font-weight="bold">LEGEND</text><g transform="translate(140,32)"><rect x="0" y="-10" width="50" height="20" fill="#ffffff" stroke="#000000"/><text x="60" dy="0.35em" fill="#000000">eTOM Business Activity</text></g><g transform="translate(416.528,32)"><path fill="#ffffff" stroke="#000000" d="M0,-8 A25,4 0 0 1 50,-8 V8 A25,4 0 0 1 0,8 Z"/><path fill="none" stroke="#000000" d="M0,-8 A25,4 0 0 0 50,-8"/><text x="60" dy="0.35em" fill="#000000">SID Data Entity</text></g><g transform="translate(648.392,32)"><path fill="none" stroke="#4c9a52" stroke-width="2.5" d="M10,-10 A10,10 0 0 1 10,10"/><line x1="20" x2="50" stroke="#4c9a52" stroke-width="2"/><text x="60" dy="0.35em" fill="#000000">Dependent API</text></g><g transform="translate(879.6080000000001,32)"><line x1="0" x2="30" stroke="#4c9a52" stroke-width="2"/><circle cx="40" r="10" fill="#e8f5e9" stroke="#4c9a52" stroke-width="2"/><text x="60" dy="0.35em" fill="#000000">Exposed API</text></g></g></svg>
