<svg xmlns="http://www.w3.org/2000/svg" version="1.1" width="1250" height="524" viewBox="0 0 1250 524" font-family="Arial, Helvetica, sans-serif" font-size="12"><title>TMFC040: PRODUCT USAGE MANAGEMENT</title><desc>ODA component architecture for TMFC040 (component.yaml v1.1.0, specified). Exposed APIs on the right, dependent APIs on the left; green = core, blue = management, red = security function. Generated by skills/svg-diagram.</desc><rect width="100%" height="100%" fill="#ffffff"/><text x="30" y="40" font-size="16" font-weight="bold" fill="#000000">TMFC040: PRODUCT USAGE MANAGEMENT</text><g id="component" transform="translate(299,80)"><rect width="620" height="290" fill="#404040" stroke="#000000"/><g id="etoms"><g class="etom" transform="translate(30,30)"><title>1.2.16 Product Usage Management (v23.0)</title><rect width="560" height="30" fill="#ffffff" stroke="#000000"/><text x="6" y="15" dy="0.35em" fill="#000000">L2 - Product Usage Management</text></g><g class="etom" transform="translate(30,70)"><title>1.2.17 Product Rating &amp; Rate Assignment (v23.0)</title><rect width="560" height="30" fill="#ffffff" stroke="#000000"/><text x="6" y="15" dy="0.35em" fill="#000000">L2 - Product Rating &amp; Rate Assignment</text></g></g><g id="sids"><g class="sid" transform="translate(30,140)"><title>Product_Domain › Product_Usage_ABE › v25.0</title><path fill="#ffffff" stroke="#000000" d="M0,5 A88,5 0 0 1 176,5 V33 A88,5 0 0 1 0,33 Z"/><path fill="none" stroke="#000000" d="M0,5 A88,5 0 0 0 176,5"/><text text-anchor="middle" fill="#000000"><tspan x="88" y="21.5" dy="0.35em">Product Usage</tspan></text></g><g class="sid" transform="translate(222,140)"><title>Product_Domain › Product_Offering_Instance_ABE › Product_Price_ABE › v25.0</title><path fill="#ffffff" stroke="#000000" d="M0,5 A88,5 0 0 1 176,5 V33 A88,5 0 0 1 0,33 Z"/><path fill="none" stroke="#000000" d="M0,5 A88,5 0 0 0 176,5"/><text text-anchor="middle" fill="#000000"><tspan x="88" y="21.5" dy="0.35em">Product Price</tspan></text></g></g></g><g id="dependent-apis"><g class="dependent-api" data-api="TMF620" data-function="core" transform="translate(30,133)"><title>[core] TMF620 Product Catalog Management v4.0.0
required: false
apiType: openapi
productOffering: GET, GET /id
productOfferingPrice: GET, GET /id
productSpecification: GET, GET /id</title><path fill="none" stroke="#4c9a52" stroke-width="2.5" d="M10,-10 A10,10 0 0 1 10,10"/><line x1="20" x2="269.42400000000004" y1="0" y2="0" stroke="#4c9a52" stroke-width="2"/><rect x="36.00200000000001" y="-23" width="217.42000000000002" height="17" rx="3" fill="#e8f5e9"/><text x="144.71200000000002" y="-10" text-anchor="middle" fill="#000000">TMF620 Product Catalog Management</text></g><g class="dependent-api" data-api="TMF632" data-function="core" transform="translate(30,179)"><title>[core] TMF632 Party Management v4.0.0
required: true
apiType: openapi
individual: GET, GET /id
organization: GET, GET /id</title><path fill="none" stroke="#4c9a52" stroke-width="2.5" d="M10,-10 A10,10 0 0 1 10,10"/><line x1="20" x2="269.42400000000004" y1="0" y2="0" stroke="#4c9a52" stroke-width="2"/><rect x="59.78942000000001" y="-23" width="169.84516000000002" height="17" rx="3" fill="#e8f5e9"/><text x="144.71200000000002" y="-10" text-anchor="middle" fill="#000000" font-weight="bold">TMF632 Party Management</text></g><g class="dependent-api" data-api="TMF637" data-function="core" transform="translate(30,225)"><title>[core] TMF637 Product Inventory Management v4.0.0
required: false
apiType: openapi
product: GET, GET /id</title><path fill="none" stroke="#4c9a52" stroke-width="2.5" d="M10,-10 A10,10 0 0 1 10,10"/><line x1="20" x2="269.42400000000004" y1="0" y2="0" stroke="#4c9a52" stroke-width="2"/><rect x="32" y="-23" width="225.42400000000004" height="17" rx="3" fill="#e8f5e9"/><text x="144.71200000000002" y="-10" text-anchor="middle" fill="#000000">TMF637 Product Inventory Management</text></g><g class="dependent-api" data-api="TMF669" data-function="core" transform="translate(30,271)"><title>[core] TMF669 Party Role Management v4.0.0
required: false
apiType: openapi
partyRole: GET, GET /id</title><path fill="none" stroke="#4c9a52" stroke-width="2.5" d="M10,-10 A10,10 0 0 1 10,10"/><line x1="20" x2="269.42400000000004" y1="0" y2="0" stroke="#4c9a52" stroke-width="2"/><rect x="51.014000000000024" y="-23" width="187.396" height="17" rx="3" fill="#e8f5e9"/><text x="144.71200000000002" y="-10" text-anchor="middle" fill="#000000">TMF669 Party Role Management</text></g><g class="dependent-api" data-api="TMF701" data-function="core" transform="translate(30,317)"><title>[core] TMF701 Process Flow Management v4.0.0
required: false
apiType: openapi
processFlow: POST, GET, GET /id, PATCH</title><path fill="none" stroke="#4c9a52" stroke-width="2.5" d="M10,-10 A10,10 0 0 1 10,10"/><line x1="20" x2="269.42400000000004" y1="0" y2="0" stroke="#4c9a52" stroke-width="2"/><rect x="43.01600000000002" y="-23" width="203.392" height="17" rx="3" fill="#e8f5e9"/><text x="144.71200000000002" y="-10" text-anchor="middle" fill="#000000">TMF701 Process Flow Management</text></g></g><g id="exposed-apis"><g class="exposed-api" data-api="TMF635" data-function="core" transform="translate(919,139.9)"><title>[core] TMF635 Usage Management v4.0.0
required: true
apiType: openapi
path: not_defined
implementation: not_defined
usage: GET, GET/id, POST, PATCH/id</title><line x1="0" x2="280.19416" y1="0" y2="0" stroke="#4c9a52" stroke-width="2"/><circle cx="290.19416" cy="0" r="10" fill="#e8f5e9" stroke="#4c9a52" stroke-width="2"/><rect x="56.60498" y="-23" width="176.98420000000002" height="17" rx="3" fill="#e8f5e9"/><text x="145.09708" y="-10" text-anchor="middle" fill="#000000" font-weight="bold">TMF635 Usage Management</text></g><g class="exposed-api" data-api="TMF677" data-function="core" transform="translate(919,199.70000000000002)"><title>[core] TMF677 Usage Consumption Management v4.0.0
required: true
apiType: openapi
path: not_defined
implementation: not_defined
queryUsageConsumption: GET, GET/id, POST</title><line x1="0" x2="280.19416" y1="0" y2="0" stroke="#4c9a52" stroke-width="2"/><circle cx="290.19416" cy="0" r="10" fill="#e8f5e9" stroke="#4c9a52" stroke-width="2"/><rect x="17" y="-23" width="256.19416" height="17" rx="3" fill="#e8f5e9"/><text x="145.09708" y="-10" text-anchor="middle" fill="#000000" font-weight="bold">TMF677 Usage Consumption Management</text></g><g class="exposed-api" data-api="TMF701" data-function="core" transform="translate(919,259.5)"><title>[core] TMF701 Process Flow Management v4.0.0
required: false
apiType: openapi
path: not_defined
implementation: not_defined
processFlow: GET, GET /id, POST, DELETE /id
taskFlow: GET, GET /id, PATCH /id</title><line x1="0" x2="280.19416" y1="0" y2="0" stroke="#4c9a52" stroke-width="2"/><circle cx="290.19416" cy="0" r="10" fill="#e8f5e9" stroke="#4c9a52" stroke-width="2"/><rect x="43.40108000000001" y="-23" width="203.392" height="17" rx="3" fill="#e8f5e9"/><text x="145.09708" y="-10" text-anchor="middle" fill="#000000">TMF701 Process Flow Management</text></g></g><text x="299" y="390" font-style="italic" font-size="11" fill="#666666">Source: component.yaml v1.1.0 · CoreCommerce · bold API = required</text><g id="legend" transform="translate(30,430)"><rect width="1189.61816" height="64" rx="32" fill="#ffffff" stroke="#000000" stroke-width="1.5"/><text x="40" y="32" dy="0.35em" font-weight="bold">LEGEND</text><g transform="translate(140,32)"><rect x="0" y="-10" width="50" height="20" fill="#ffffff" stroke="#000000"/><text x="60" dy="0.35em" fill="#000000">eTOM Business Activity</text></g><g transform="translate(431.72953999999993,32)"><path fill="#ffffff" stroke="#000000" d="M0,-8 A25,4 0 0 1 50,-8 V8 A25,4 0 0 1 0,8 Z"/><path fill="none" stroke="#000000" d="M0,-8 A25,4 0 0 0 50,-8"/><text x="60" dy="0.35em" fill="#000000">SID Data Entity</text></g><g transform="translate(678.7950799999999,32)"><path fill="none" stroke="#4c9a52" stroke-width="2.5" d="M10,-10 A10,10 0 0 1 10,10"/><line x1="20" x2="50" stroke="#4c9a52" stroke-width="2"/><text x="60" dy="0.35em" fill="#000000">Dependent API</text></g><g transform="translate(925.2126199999998,32)"><line x1="0" x2="30" stroke="#4c9a52" stroke-width="2"/><circle cx="40" r="10" fill="#e8f5e9" stroke="#4c9a52" stroke-width="2"/><text x="60" dy="0.35em" fill="#000000">Exposed API</text></g></g></svg>
